# xmcd
#
# Track frame offsets: 
#        150
#        26270
#        42572
#        55485
#        71070
#        97387
#        129998
#        208692
#
# Disc length: 3482 seconds
#
# Revision: 3
# Processed by: cddbd v1.5.2PL0 Copyright (c) Steve Scherf et al.
# Submitted via: ExactAudioCopy v1.0b6
#
DISCID=780d9808
DTITLE=Gallagher, Rory - Irish Tour '74 CD6
DYEAR=2014
DGENRE=Blues
TTITLE0=As The Crow Flies
TTITLE1=Pistol Slapper Blues
TTITLE2=Unmilitary Two-Step
TTITLE3=Bankers Blues
TTITLE4=Going To My Hometown
TTITLE5=Who's That Coming
TTITLE6=In Your Town
TTITLE7=Bullfrog Blues
EXTD=
EXTT0=
EXTT1=
EXTT2=
EXTT3=
EXTT4=
EXTT5=
EXTT6=
EXTT7=
PLAYORDER=
